<?xml version="1.0" encoding="UTF-8"?>
<svg version="1.1" xmlns="http://www.w3.org/2000/svg" width="715" height="459">
<path d="M0 0 C235.95 0 471.9 0 715 0 C715 151.47 715 302.94 715 459 C479.05 459 243.1 459 0 459 C0 307.53 0 156.06 0 0 Z " fill="#221F1D" transform="translate(0,0)"/>
<path d="M0 0 C5.42762885 1.80920962 10.58865 3.56640779 15.8359375 5.7421875 C16.44079987 5.99243683 17.04566223 6.24268616 17.66885376 6.5005188 C18.93479945 7.02506683 20.20012776 7.55110726 21.46484375 8.07861328 C23.36303117 8.87000993 25.26335821 9.65607649 27.1640625 10.44140625 C34.5151946 13.49194205 41.74707339 16.70321518 49 20 C49 44.42 49 68.84 49 94 C47.35 93.01 45.7 92.02 44 91 C43.36076355 88.24751282 43.36076355 88.24751282 43.34057617 84.8762207 C43.32093307 83.61513992 43.30128998 82.35405914 43.28105164 81.05476379 C43.2844951 79.67843485 43.28848023 78.30210718 43.29296875 76.92578125 C43.27985448 75.51757161 43.26455108 74.1093808 43.24714661 72.70121765 C43.20725036 68.99724431 43.19710335 65.29376248 43.19311523 61.58959961 C43.18379226 57.80893231 43.14665551 54.02854591 43.11132812 50.24804688 C43.04407316 42.83165901 43.02330447 35.41717852 43 28 C26.17 21.07 26.17 21.07 9 14 C9.33 60.53 9.66 107.06 10 155 C15.94 158.3 21.88 161.6 28 165 C29 166 29 166 29.12025452 168.66383362 C29.11803391 169.85186081 29.11581329 171.039888 29.11352539 172.26391602 C29.11367142 172.91755127 29.11381744 173.57118652 29.1139679 174.24462891 C29.11326883 176.41442128 29.10547678 178.58412879 29.09765625 180.75390625 C29.09579205 182.25463311 29.09436816 183.75536057 29.09336853 185.25608826 C29.08954352 189.21318226 29.0797134 193.17023978 29.06866455 197.12731934 C29.05845006 201.16234849 29.05387083 205.19738353 29.04882812 209.23242188 C29.0380911 217.15496656 29.02049445 225.07747454 29 233 C19.43 233 9.86 233 0 233 C-0.33 208.91 -0.66 184.82 -1 160 C-9.91 155.05 -18.82 150.1 -28 145 C-33.28 142.03 -38.56 139.06 -44 136 C-44 167.68 -44 199.36 -44 232 C-27.665 232.495 -27.665 232.495 -11 233 C3.16641479 233.99831796 3.16641479 233.99831796 9.55126953 234.49169922 C23.83344182 235.52536832 38.15798566 235.93516359 52.46569824 236.46972656 C56.59768219 236.62481115 60.72950432 236.78407376 64.86132812 236.94335938 C66.07396804 236.99008569 66.07396804 236.99008569 67.31110573 237.03775597 C69.71652307 237.13051892 72.12193448 237.22343413 74.52734375 237.31640625 C75.3052766 237.34644367 76.08320946 237.37648109 76.88471603 237.40742874 C95.37313534 238.12226995 95.37313534 238.12226995 104.37890625 238.52734375 C105.17989243 238.56114639 105.9808786 238.59494904 106.80613708 238.629776 C111.25903294 238.83913928 115.59305615 239.34625124 120 240 C121.83019997 240.13352982 123.66260125 240.24046277 125.49609375 240.31640625 C126.46611328 240.35830078 127.43613281 240.40019531 128.43554688 240.44335938 C129.42619141 240.48267578 130.41683594 240.52199219 131.4375 240.5625 C132.45521484 240.60568359 133.47292969 240.64886719 134.52148438 240.69335938 C137.01421028 240.79868582 139.50702338 240.90081672 142 241 C142 243.31 142 245.62 142 248 C134.74 248 127.48 248 120 248 C120 248.66 120 249.32 120 250 C117.68225703 251.80911869 115.3695393 253.48121938 112.9375 255.125 C112.21449707 255.61564941 111.49149414 256.10629883 110.74658203 256.61181641 C99.51895274 264.10912514 88.00836978 270.18040553 75 274 C74.01265869 274.29414795 74.01265869 274.29414795 73.00537109 274.59423828 C43.63191819 282.99745065 11.60114603 278.70798243 -15.03125 264.11279297 C-22.87095994 259.68156803 -29.81828941 254.47754916 -36.6875 248.6875 C-37.60752808 247.91345825 -37.60752808 247.91345825 -38.54614258 247.1237793 C-42.87662765 243.37011706 -42.87662765 243.37011706 -44 240 C-51.26 239.67 -58.52 239.34 -66 239 C-66 236.36 -66 233.72 -66 231 C-61.71 231 -57.42 231 -53 231 C-53.969375 229.700625 -54.93875 228.40125 -55.9375 227.0625 C-63.13670774 216.69273208 -68.69269248 205.62956548 -72.9375 193.75 C-73.21980469 192.97156738 -73.50210938 192.19313477 -73.79296875 191.39111328 C-82.85897977 164.72081982 -80.13170044 131.92527005 -67.9453125 106.7109375 C-56.04881102 83.41819767 -38.00369962 65.28322062 -15.0625 53 C-14.01630493 52.43913696 -14.01630493 52.43913696 -12.94897461 51.86694336 C-8.55195584 49.59287749 -4.9585509 48.41672883 0 47 C0 31.49 0 15.98 0 0 Z " fill="#010101" transform="translate(311,9)"/>
<path d="M0 0 C5.93799145 1.8442226 11.63346917 4.2543034 17.375 6.625 C18.39722656 7.04523437 19.41945313 7.46546875 20.47265625 7.8984375 C22.9825045 8.93052463 25.49158781 9.96442866 28 11 C27.8865625 12.0621875 27.773125 13.124375 27.65625 14.21875 C27.40915882 18.61749313 27.26925055 22.87566087 29 27 C32.7374016 30.71049538 38.09588626 32.27848903 42.92138672 34.13330078 C52.14976179 37.98116683 59.87649937 45.16725449 67 52 C67.86625 52.825 68.7325 53.65 69.625 54.5 C70.40875 55.325 71.1925 56.15 72 57 C72.58007812 57.59683594 73.16015625 58.19367188 73.7578125 58.80859375 C88.11764258 74.15390236 96.26786731 92.75945876 101 113 C101.18691406 113.76812012 101.37382812 114.53624023 101.56640625 115.32763672 C105.33825684 132.11573955 104.14316203 150.64239695 99 167 C98.75862305 167.7739209 98.51724609 168.5478418 98.26855469 169.34521484 C94.72792677 180.36569759 90.1177682 190.51997663 84.01513672 200.35693359 C83.11737507 201.81002063 82.26051022 203.2882021 81.41015625 204.76953125 C80.04633777 206.92670673 78.98182771 208.40471809 77 210 C74.73828125 210.29296875 74.73828125 210.29296875 72.3125 210.1875 C71.10013672 210.14689453 71.10013672 210.14689453 69.86328125 210.10546875 C69.24839844 210.07066406 68.63351562 210.03585938 68 210 C68.0407666 208.89103363 68.0815332 207.78206726 68.12353516 206.63949585 C68.49363111 196.13726935 68.73453589 185.63876023 68.8523407 175.13059044 C68.91697204 169.72815386 69.02539671 164.33435398 69.23779297 158.93554688 C71.16750547 136.47099314 71.16750547 136.47099314 64.77099609 115.7545166 C59.33274296 110.83569315 53.29863193 108.38125755 46.37304688 106.22540283 C40.16881128 103.9714502 34.62463401 100.41710436 29 97 C28.9845388 98.33090919 28.9845388 98.33090919 28.96876526 99.68870544 C28.87096575 108.03251571 28.76847685 116.37625215 28.66066074 124.71993923 C28.60539264 129.0099621 28.55196657 133.29999174 28.50268555 137.59008789 C28.45509914 141.72685436 28.40275868 145.86353536 28.34705925 150.00020027 C28.32660966 151.58189847 28.30790097 153.16362012 28.29092598 154.74535942 C28.2669393 156.95329178 28.23687744 159.1610612 28.20532227 161.36889648 C28.18977798 162.62798325 28.1742337 163.88707001 28.15821838 165.18431091 C28 168 28 168 27 169 C17.1 169 7.2 169 -3 169 C-3 135.67 -3 102.34 -3 68 C4.95411679 69.9885292 11.83285799 75.01825444 19 79 C18.67 58.87 18.34 38.74 18 18 C9.585 14.535 9.585 14.535 1 11 C0 10 0 10 -0.09765625 7.71484375 C-0.08605469 6.79832031 -0.07445312 5.88179687 -0.0625 4.9375 C-0.05347656 4.01839844 -0.04445313 3.09929688 -0.03515625 2.15234375 C-0.02355469 1.44207031 -0.01195312 0.73179688 0 0 Z " fill="#1A9589" transform="translate(363,39)"/>
<path d="M0 0 C0 30.36 0 60.72 0 92 C-4.04865183 90.65044939 -6.85238261 89.68946852 -10.37109375 87.63671875 C-11.58756592 86.93361572 -11.58756592 86.93361572 -12.82861328 86.21630859 C-13.6895459 85.71180176 -14.55047852 85.20729492 -15.4375 84.6875 C-17.29778647 83.61000241 -19.1584793 82.53320616 -21.01953125 81.45703125 C-21.98971191 80.8945166 -22.95989258 80.33200195 -23.95947266 79.75244141 C-30.15279864 76.1828498 -36.39122879 72.69243262 -42.62280273 69.19018555 C-43.54391846 68.67109619 -44.46503418 68.15200684 -45.4140625 67.6171875 C-46.63536865 66.93052002 -46.63536865 66.93052002 -47.88134766 66.22998047 C-49.62614733 65.21703961 -51.32132434 64.11911711 -53 63 C-53 94.02 -53 125.04 -53 157 C-64.87593588 142.15508014 -69.37702344 122.12643729 -69.20581055 103.49536133 C-69.18750033 101.43753655 -69.18530203 99.38016369 -69.18554688 97.32226562 C-69.16076208 87.24184659 -68.75077983 78.07903632 -65.5 68.5 C-65.23864258 67.72954346 -64.97728516 66.95908691 -64.70800781 66.1652832 C-56.31295454 42.46543921 -28.71775642 0 0 0 Z " fill="#231E1C" transform="translate(311,66)"/>
<path d="M0 0 C2.54685918 1.24624295 5.09055056 2.49834639 7.6328125 3.75390625 C8.34671143 4.10247681 9.06061035 4.45104736 9.79614258 4.81018066 C35.04740372 17.32004614 52.20547029 40.28878243 61.22265625 66.5625 C69.68040866 93.23928181 66.19195723 123.17179746 54 148 C52.7164552 150.36840015 51.3755245 152.68284127 50 155 C49.67 155 49.34 155 49 155 C49 128.93 49 102.86 49 76 C47.35 75.34 45.7 74.68 44 74 C41.96639495 72.91614514 39.95080137 71.79815975 37.94921875 70.65625 C37.37275101 70.32765991 36.79628326 69.99906982 36.2023468 69.66052246 C34.98026233 68.96277013 33.75910326 68.2633948 32.53881836 67.5625 C30.13629573 66.18365542 27.72732277 64.81624705 25.31838989 63.44863892 C24.1054149 62.74879285 22.90004195 62.03561651 21.70236206 61.30990601 C18.38759129 59.30625581 15.12731363 57.59534354 11.54931641 56.10400391 C7.05116451 54.06949301 2.95757844 52.07338887 0 48 C-2.56674148 40.12856894 -1.50039991 31.50295794 -1 23.375 C-0.91966047 21.10832384 -0.84667074 18.84137454 -0.78125 16.57421875 C-0.60570868 11.04347958 -0.33883164 5.52301335 0 0 Z " fill="#22211F" transform="translate(391,76)"/>
<path d="M0 0 C17.91694507 0.49098457 35.8267584 1.12076464 53.73483276 1.86895752 C55.81659966 1.95583184 57.89840712 2.0417397 59.98025513 2.12664795 C62.94270597 2.24798813 65.90495751 2.37339479 68.8671875 2.5 C70.17971245 2.55312851 70.17971245 2.55312851 71.51875305 2.60733032 C75.65604546 2.78886313 79.75692932 3.05603654 83.875 3.49780273 C89.61940484 4.1027091 95.362313 4.32587753 101.1328125 4.53515625 C102.25066132 4.57813339 103.36851013 4.62111053 104.52023315 4.66539001 C108.05505314 4.8006356 111.59001532 4.93163712 115.125 5.0625 C117.53646904 5.15401531 119.94792751 5.24580944 122.359375 5.33789062 C128.23946506 5.56181714 134.11967745 5.78226896 140 6 C140 6.66 140 7.32 140 8 C115.73818191 26.53067996 85.89548495 31.86166215 56.1015625 28.53515625 C35.88981699 25.68026141 15.78914363 16.07497976 1 2 C0.67 1.34 0.34 0.68 0 0 Z " fill="#231E1D" transform="translate(279,249)"/>
<path d="M0 0 C1.7634375 -0.01160156 1.7634375 -0.01160156 3.5625 -0.0234375 C9.2504243 0.63584463 13.048912 2.88371189 16.75 7.1875 C17.32234375 7.83332031 17.8946875 8.47914063 18.484375 9.14453125 C21.4963602 13.57711771 22.25051357 18.00944723 22.22705078 23.28857422 C22.22689972 24.42930389 22.22674866 25.57003357 22.22659302 26.74533081 C22.21627045 27.96116852 22.20594788 29.17700623 22.1953125 30.4296875 C22.1924826 31.68637238 22.18965271 32.94305725 22.18673706 34.23782349 C22.17746123 37.56200864 22.15952381 40.88591424 22.1373291 44.21002197 C22.11678812 47.60874021 22.10771778 51.00748744 22.09765625 54.40625 C22.07563379 61.06257667 22.04218433 67.71877221 22 74.375 C19.69 74.375 17.38 74.375 15 74.375 C15 66.125 15 57.875 15 49.375 C5.43 49.375 -4.14 49.375 -14 49.375 C-14 57.625 -14 65.875 -14 74.375 C-16.64 74.375 -19.28 74.375 -22 74.375 C-22.10189485 66.7253769 -22.17167286 59.07593055 -22.21972656 51.42578125 C-22.2397713 48.82643086 -22.26701447 46.22712517 -22.30175781 43.62792969 C-22.35058865 39.8794447 -22.37304126 36.13155889 -22.390625 32.3828125 C-22.41127014 31.23136749 -22.43191528 30.07992249 -22.45318604 28.89358521 C-22.45554816 20.29034723 -20.91688759 12.90090749 -15.625 5.9375 C-10.85654135 1.28257608 -6.60135156 -0.04342994 0 0 Z " fill="#1A9287" transform="translate(536,310.625)"/>
<path d="M0 0 C7.51104323 3.29507452 11.57921433 9.57769586 14.83984375 16.828125 C19.24970074 31.32411642 18.19290136 50.74031586 11.08984375 64.06640625 C7.71701631 69.20089422 3.42727716 72.43308886 -2.3984375 74.33203125 C-9.15753052 75.04109142 -15.51925973 75.02092711 -21.3984375 71.33203125 C-28.18348701 65.72443068 -31.924112 57.93318365 -33.3984375 49.33203125 C-34.73707401 35.16715014 -35.02776666 19.19450486 -26.17578125 7.3125 C-18.90768525 -0.78623554 -10.60224292 -2.95274192 0 0 Z M-19.80859375 12.0625 C-27.2443856 22.92352541 -27.03023687 38.50548011 -24.7109375 51.05078125 C-22.86630485 57.13806898 -20.2053594 62.08820592 -15.3984375 66.33203125 C-10.97708032 68.54270984 -5.63873394 67.72986218 -1.0859375 66.26953125 C2.35997396 63.7852695 3.99736443 61.16784708 5.6015625 57.33203125 C5.90191406 56.61789062 6.20226562 55.90375 6.51171875 55.16796875 C10.54313719 43.35497519 10.57529546 27.26680033 5.94921875 15.66015625 C3.43995378 11.32531011 0.03844283 8.55047142 -4.3984375 6.33203125 C-11.15997898 5.76856946 -15.26768861 6.49014272 -19.80859375 12.0625 Z " fill="#1A9589" transform="translate(228.3984375,311.66796875)"/>
<path d="M0 0 C4.84801926 2.88426462 8.38568398 7.13317127 10.5 12.375 C10.74050903 15.1338501 10.74050903 15.1338501 10.72705078 18.33691406 C10.72689972 19.53785706 10.72674866 20.73880005 10.72659302 21.97613525 C10.71627045 23.26791687 10.70594788 24.55969849 10.6953125 25.890625 C10.69158034 27.23012073 10.68873432 28.56961921 10.68673706 29.90911865 C10.67911657 33.42728265 10.65948187 36.9452804 10.6373291 40.46337891 C10.61683643 44.05629223 10.60772804 47.64923253 10.59765625 51.2421875 C10.57623434 58.28652617 10.54211765 65.33075221 10.5 72.375 C8.19 72.375 5.88 72.375 3.5 72.375 C3.49413376 71.6867514 3.48826752 70.99850281 3.48222351 70.28939819 C3.41823516 63.11893214 3.33380068 55.94891263 3.23754883 48.77880859 C3.20267998 46.10363786 3.17628119 43.42876362 3.15356445 40.75341797 C3.11998733 36.90562212 3.06766721 33.05846511 3.01171875 29.2109375 C3.00532883 28.01697357 2.9989389 26.82300964 2.99235535 25.59286499 C2.87274549 18.82077439 2.46323035 13.95557001 -2 8.5625 C-5.32103658 5.93334604 -9.16007954 5.98116133 -13.2109375 6.02734375 C-17.20174842 6.63345667 -18.80051704 8.41215285 -21.5 11.375 C-23.29953456 15.03492375 -23.76389966 18.02625788 -23.81884766 22.08325195 C-23.83871735 23.20403641 -23.85858704 24.32482086 -23.87905884 25.47956848 C-23.89638565 27.2782563 -23.89638565 27.2782563 -23.9140625 29.11328125 C-23.93342865 30.34918503 -23.9527948 31.58508881 -23.9727478 32.85844421 C-24.02232555 36.13151967 -24.06362829 39.404561 -24.10089111 42.67779541 C-24.14102019 46.02293457 -24.19223452 49.36788373 -24.2421875 52.71289062 C-24.33816807 59.26681861 -24.42323671 65.82082028 -24.5 72.375 C-26.81 72.375 -29.12 72.375 -31.5 72.375 C-31.56977037 64.95096845 -31.6229476 57.52700858 -31.65543652 50.10271454 C-31.67103628 46.65462086 -31.69216893 43.20675288 -31.72631836 39.75878906 C-31.76540455 35.78713765 -31.77975629 31.81557495 -31.79296875 27.84375 C-31.80845261 26.61636108 -31.82393646 25.38897217 -31.83988953 24.12438965 C-31.84135804 16.60274365 -31.64875901 10.0760615 -26.5625 4.09765625 C-25.5415625 3.27587891 -25.5415625 3.27587891 -24.5 2.4375 C-23.819375 1.87160156 -23.13875 1.30570312 -22.4375 0.72265625 C-16.49030711 -3.41400009 -6.41050878 -2.95398206 0 0 Z " fill="#1A978B" transform="translate(293.5,312.625)"/>
<path d="M0 0 C2.64 0 5.28 0 8 0 C10.53953522 7.20060763 12.49139264 14.50647936 14.36083984 21.90377808 C15.23058439 25.34398737 16.11109689 28.78143183 16.9921875 32.21875 C17.16457947 32.89179672 17.33697144 33.56484344 17.5145874 34.25828552 C19.55675108 42.20585804 21.74866724 50.10951164 24 58 C25.36358335 55.40587461 26.41808089 52.92075395 27.2265625 50.10546875 C27.56167847 48.94108276 27.56167847 48.94108276 27.90356445 47.75317383 C28.14163818 46.90650146 28.37971191 46.0598291 28.625 45.1875 C28.87789795 44.29764404 29.1307959 43.40778809 29.39135742 42.4909668 C32.21987232 32.41718686 34.80197624 22.27785157 37.37158203 12.13549805 C37.53882278 11.47846893 37.70606354 10.82143982 37.87837219 10.14450073 C38.33656352 8.34331097 38.79202376 6.5414271 39.24731445 4.73950195 C40 2 40 2 41 0 C43.64 0 46.28 0 49 0 C48.42379666 2.73083605 47.83913612 5.45944806 47.25 8.1875 C47.01410156 9.31188477 47.01410156 9.31188477 46.7734375 10.45898438 C45.50502981 16.28878128 43.81288116 21.92528713 42.02587891 27.61547852 C40.34731856 33.15328959 38.96937403 38.76326602 37.5625 44.375 C35.09502469 54.07470753 32.4199543 63.59118562 29 73 C26.03 73 23.06 73 20 73 C17.8842099 68.18957158 16.6071357 63.18704953 15.25 58.125 C14.98904541 57.16118408 14.72809082 56.19736816 14.45922852 55.2043457 C12.31374809 47.24928746 10.24932676 39.27378082 8.19165039 31.2956543 C6.45706615 24.61936859 4.59076096 17.99359172 2.56030273 11.40112305 C1.40945087 7.62002953 0.56068124 3.91271104 0 0 Z " fill="#1A9488" transform="translate(318,312)"/>
<path d="M0 0 C3.21618856 0.80404714 5.76869185 1.70337423 8.75 3.0625 C9.54921875 3.42472656 10.3484375 3.78695312 11.171875 4.16015625 C11.77515625 4.43730469 12.3784375 4.71445313 13 5 C13.02312545 14.10959165 13.04091612 23.21917326 13.05181217 32.3287878 C13.05704056 36.55831371 13.0641374 40.7878196 13.07543945 45.01733398 C13.08626991 49.09568543 13.09227717 53.17401757 13.09487724 57.25238228 C13.09673121 58.81177639 13.10035127 60.3711694 13.10573006 61.93055534 C13.11294262 64.10729162 13.11399085 66.28394714 13.11352539 68.46069336 C13.115746 69.70201523 13.11796661 70.9433371 13.12025452 72.22227478 C13 75 13 75 12 76 C8.04 76 4.08 76 0 76 C0 50.92 0 25.84 0 0 Z " fill="#222623" transform="translate(369,123)"/>
<path d="M0 0 C-0.33 1.98 -0.66 3.96 -1 6 C-5 6 -5 6 -7.6875 5 C-13.31986755 3.29966263 -18.00176859 2.98203306 -23.3125 5.6875 C-31.04180253 12.3382952 -32.52819277 19.86013024 -33.2890625 29.76171875 C-33.5201981 39.98421582 -32.89599137 50.88706898 -26 59 C-22.16286943 62.66883537 -19.7937002 63.53026344 -14.5 63.4375 C-13.3965625 63.43621094 -12.293125 63.43492187 -11.15625 63.43359375 C-7.72515769 62.9622432 -5.85348378 61.89394962 -3 60 C-2.34 60 -1.68 60 -1 60 C-0.505 63.465 -0.505 63.465 0 67 C-5.8317655 71.6654124 -11.97935058 71.7680036 -19.17578125 71.4453125 C-24.2961733 70.84906664 -27.31285834 69.54325321 -31 66 C-31.82371094 65.23816406 -31.82371094 65.23816406 -32.6640625 64.4609375 C-42.23364395 54.51422969 -42.46882082 41.06156505 -42.27734375 28.07421875 C-41.90880967 18.20813969 -39.07651411 9.09328311 -32 2 C-22.09036826 -6.41264481 -11.21483581 -5.55779474 0 0 Z " fill="#1A9488" transform="translate(450,315)"/>
<path d="M0 0 C-0.75 4.75 -0.75 4.75 -3 7 C-3.94875 6.505 -4.8975 6.01 -5.875 5.5 C-10.54626901 3.51968514 -15.00057132 3.27988362 -20 4 C-25.59815351 6.53501291 -28.36478288 10.6301236 -31 16 C-35.31736767 27.51298046 -34.21346469 43.16538554 -29.25 54.3125 C-27.15437645 58.04225599 -25.05674048 61.32134877 -21 63 C-14.11114358 63.90231873 -8.87227431 63.8804484 -3 60 C-2.34 60 -1.68 60 -1 60 C-0.505 63.465 -0.505 63.465 0 67 C-7.48719107 71.53172091 -14.34331642 72.03496552 -23 71 C-26.29276688 69.87823507 -28.49958523 68.39197842 -31 66 C-31.886875 65.154375 -32.77375 64.30875 -33.6875 63.4375 C-40.38030035 54.72551582 -42.17918293 44.37921433 -42.1875 33.75 C-42.19974609 32.94175781 -42.21199219 32.13351562 -42.22460938 31.30078125 C-42.24919415 21.05712585 -40.16992274 10.67226342 -33.0703125 2.8828125 C-23.00374053 -6.27206993 -11.87752677 -5.88620795 0 0 Z " fill="#1A9489" transform="translate(181,315)"/>
<path d="M0 0 C3.73954485 1.28974668 6.34218232 3.08424453 8.68359375 6.34375 C10.65897362 11.830265 10.31367176 17.09789663 10.1875 22.875 C10.125625 26.87625 10.06375 30.8775 10 35 C0.76 35 -8.48 35 -18 35 C-18.061875 31.535 -18.12375 28.07 -18.1875 24.5 C-18.21481201 23.42427734 -18.24212402 22.34855469 -18.27026367 21.24023438 C-18.33536159 13.65247705 -17.54030391 7.90320446 -12.375 2 C-8.02240701 -0.57931436 -4.93667301 -0.91865046 0 0 Z " fill="#212020" transform="translate(540,318)"/>
<path d="M0 0 C13.2 0 26.4 0 40 0 C40 2.31 40 4.62 40 7 C34.72 7 29.44 7 24 7 C24 29.11 24 51.22 24 74 C21.36 74 18.72 74 16 74 C16 51.56 16 29.12 16 6 C10.72 6 5.44 6 0 6 C0 4.02 0 2.04 0 0 Z " fill="#1A9387" transform="translate(461,312)"/>
<path d="M0 0 C8.06118848 2.68706283 8.06118848 2.68706283 11 5 C11.60127258 7.37284851 11.60127258 7.37284851 11.56762695 10.20581055 C11.5672493 11.26668381 11.56687164 12.32755707 11.56648254 13.420578 C11.54067612 14.56440445 11.51486969 15.7082309 11.48828125 16.88671875 C11.47766914 18.64493706 11.47766914 18.64493706 11.46684265 20.43867493 C11.43881479 24.18892772 11.37605598 27.93769713 11.3125 31.6875 C11.2874282 34.22719201 11.2646131 36.76690738 11.24414062 39.30664062 C11.18895981 45.5383335 11.10262518 51.76891512 11 58 C7.37 58 3.74 58 0 58 C0 38.86 0 19.72 0 0 Z " fill="#221D1B" transform="translate(320,175)"/>
<path d="M0 0 C2.64 0 5.28 0 8 0 C8 24.42 8 48.84 8 74 C5.36 74 2.72 74 0 74 C0 49.58 0 25.16 0 0 Z " fill="#1A9085" transform="translate(382,312)"/>
<path d="M0 0 C3.52744682 0.85916031 4.973663 2.54444741 6.97265625 5.48046875 C7.66246711 9.69597953 7.18060012 11.98321167 5.53515625 15.91796875 C2.76400213 18.68912287 2.19171176 18.94739874 -1.52734375 19.16796875 C-4.87177666 18.92002891 -5.86357728 18.60828648 -8.58984375 16.48046875 C-10.43802772 12.62338916 -10.83983918 9.67836179 -10.02734375 5.48046875 C-7.68591711 0.79761548 -5.28914882 -0.3657916 0 0 Z " fill="#211D1C" transform="translate(458.02734375,407.51953125)"/>
<path d="M0 0 C2.5 1.375 2.5 1.375 4 4 C4.73430028 8.6046747 4.8440582 12.52289815 2.5 16.625 C-1.05435077 18.57989292 -4.04061486 18.90871134 -8 18 C-10.78570637 15.84107756 -11.78058325 14.28450225 -12.375 10.8046875 C-12.5720674 7.07272365 -12.40702693 4.69533767 -10.5 1.4375 C-6.94552619 -0.60632244 -4.00129091 -0.77074046 0 0 Z " fill="#211D1C" transform="translate(320,408)"/>
<path d="M0 0 C3.1850357 1.76015131 3.83296972 2.49890916 5 6 C5.36917963 9.98714001 5.33427147 12.34538504 3.5 15.9375 C0.45964982 18.4457889 -1.24164808 18.6970008 -5.09375 18.40234375 C-7 18 -7 18 -9.5 16.625 C-11.84195873 12.52657222 -11.74135651 8.6009961 -11 4 C-8.24432358 -0.62953638 -5.11343733 -0.63917967 0 0 Z " fill="#211D1B" transform="translate(185,408)"/>
<path d="M0 0 C2.97 0 5.94 0 9 0 C9.99 0.99 10.98 1.98 12 3 C11.73897585 6.48032201 10.96602468 8.05096298 9 11 C9.7425 12.175625 9.7425 12.175625 10.5 13.375 C12 16 12 16 12 18 C11.01 17.67 10.02 17.34 9 17 C7.8125 13.9375 7.8125 13.9375 7 11 C5.35 11 3.7 11 2 11 C2 13.31 2 15.62 2 18 C1.34 18 0.68 18 0 18 C0 12.06 0 6.12 0 0 Z " fill="#030303" transform="translate(471,408)"/>
<path d="M0 0 C2.97 0 5.94 0 9 0 C9.99 0.99 10.98 1.98 12 3 C11.73897585 6.48032201 10.96602468 8.05096298 9 11 C9.7425 12.175625 9.7425 12.175625 10.5 13.375 C12 16 12 16 12 18 C11.01 17.67 10.02 17.34 9 17 C7.8125 13.9375 7.8125 13.9375 7 11 C5.35 11 3.7 11 2 11 C2 13.31 2 15.62 2 18 C1.34 18 0.68 18 0 18 C0 12.06 0 6.12 0 0 Z " fill="#040404" transform="translate(251,408)"/>
<path d="M0 0 C1.32 0 2.64 0 4 0 C4.67260351 1.76858691 5.33788395 3.53996016 6 5.3125 C6.37125 6.29863281 6.7425 7.28476562 7.125 8.30078125 C8 11 8 11 8 14 C8.66 14 9.32 14 10 14 C10.0825 13.360625 10.165 12.72125 10.25 12.0625 C11.29520372 7.79458483 13.14091826 3.96892333 15 0 C15.99 0 16.98 0 18 0 C18 5.94 18 11.88 18 18 C17.34 18 16.68 18 16 18 C15.67 14.04 15.34 10.08 15 6 C13.35 9.96 11.7 13.92 10 18 C9.34 18 8.68 18 8 18 C6.35 13.71 4.7 9.42 3 5 C2.67 9.29 2.34 13.58 2 18 C1.34 18 0.68 18 0 18 C0 12.06 0 6.12 0 0 Z " fill="#040404" transform="translate(489,408)"/>
<path d="M0 0 C7.875 0 7.875 0 11 2 C11.25333333 7.57333333 11.25333333 7.57333333 9.8125 10 C9.544375 10.66 9.27625 11.32 9 12 C10.28322447 15.23394361 10.28322447 15.23394361 12 18 C9.42262834 16.96905133 8.23715753 16.4891374 7 13.9375 C6.1704178 11.78719721 6.1704178 11.78719721 3.875 11.25 C3.25625 11.1675 2.6375 11.085 2 11 C2 13.31 2 15.62 2 18 C1.34 18 0.68 18 0 18 C0 12.06 0 6.12 0 0 Z " fill="#050404" transform="translate(399,408)"/>
<path d="M0 0 C0.99 0.33 1.98 0.66 3 1 C4.20427373 3.48180012 5.22540913 5.86479775 6.1875 8.4375 C6.46013672 9.13166016 6.73277344 9.82582031 7.01367188 10.54101562 C9 15.68356438 9 15.68356438 9 18 C8.01 17.67 7.02 17.34 6 17 C5.67 16.01 5.34 15.02 5 14 C2.36 13.67 -0.28 13.34 -3 13 C-3.33 14.65 -3.66 16.3 -4 18 C-4.99 17.67 -5.98 17.34 -7 17 C-6.02412745 14.35290841 -5.04447855 11.70732553 -4.0625 9.0625 C-3.78470703 8.30775391 -3.50691406 7.55300781 -3.22070312 6.77539062 C-1.11328125 1.11328125 -1.11328125 1.11328125 0 0 Z " fill="#090808" transform="translate(519,408)"/>
<path d="M0 0 C3.52744682 0.85916031 4.973663 2.54444741 6.97265625 5.48046875 C7.66246711 9.69597953 7.18060012 11.98321167 5.53515625 15.91796875 C2.76400213 18.68912287 2.19171176 18.94739874 -1.52734375 19.16796875 C-4.87177666 18.92002891 -5.86357728 18.60828648 -8.58984375 16.48046875 C-10.43802772 12.62338916 -10.83983918 9.67836179 -10.02734375 5.48046875 C-7.68591711 0.79761548 -5.28914882 -0.3657916 0 0 Z M-6.96484375 4.10546875 C-8.32959621 7.1560919 -8.44141397 9.16790699 -8.02734375 12.48046875 C-7.1249854 14.96152069 -7.1249854 14.96152069 -5.02734375 16.48046875 C-1.4852039 16.98054669 -1.4852039 16.98054669 1.97265625 16.48046875 C4.15694887 14.70337843 4.15694887 14.70337843 4.23828125 12.421875 C4.233125 11.63683594 4.22796875 10.85179687 4.22265625 10.04296875 C4.2278125 9.26050781 4.23296875 8.47804688 4.23828125 7.671875 C4.10442456 5.19002768 4.10442456 5.19002768 1.97265625 2.48046875 C-2.87573063 1.82039851 -2.87573063 1.82039851 -6.96484375 4.10546875 Z " fill="#060505" transform="translate(458.02734375,407.51953125)"/>
<path d="M0 0 C5.90366202 2.95183101 7.60751956 7.38935926 11 13 C11.33 8.71 11.66 4.42 12 0 C12.66 0 13.32 0 14 0 C14 5.94 14 11.88 14 18 C10 17 10 17 8.078125 14.49609375 C7.47484375 13.48675781 6.8715625 12.47742188 6.25 11.4375 C5.32960937 9.91962891 5.32960937 9.91962891 4.390625 8.37109375 C3.93171875 7.58863281 3.4728125 6.80617188 3 6 C2.67 9.96 2.34 13.92 2 18 C1.34 18 0.68 18 0 18 C0 12.06 0 6.12 0 0 Z " fill="#060505" transform="translate(197,408)"/>
<path d="M0 0 C2.5 1.375 2.5 1.375 4 4 C4.73430028 8.6046747 4.8440582 12.52289815 2.5 16.625 C-1.05435077 18.57989292 -4.04061486 18.90871134 -8 18 C-10.78570637 15.84107756 -11.78058325 14.28450225 -12.375 10.8046875 C-12.5720674 7.07272365 -12.40702693 4.69533767 -10.5 1.4375 C-6.94552619 -0.60632244 -4.00129091 -0.77074046 0 0 Z M-8.875 4.125 C-10.15153963 7.38726795 -10.45279515 9.52857054 -10 13 C-9.06402685 15.01951062 -9.06402685 15.01951062 -7 16 C-3.45786015 16.50007794 -3.45786015 16.50007794 0 16 C2.54014875 12.18977687 2.58606955 9.46529184 2 5 C1.03882095 2.87129307 1.03882095 2.87129307 -1 2 C-4.78891736 1.36851377 -6.27269763 1.17572398 -8.875 4.125 Z " fill="#050404" transform="translate(320,408)"/>
<path d="M0 0 C3.1850357 1.76015131 3.83296972 2.49890916 5 6 C5.36917963 9.98714001 5.33427147 12.34538504 3.5 15.9375 C0.45964982 18.4457889 -1.24164808 18.6970008 -5.09375 18.40234375 C-7 18 -7 18 -9.5 16.625 C-11.84195873 12.52657222 -11.74135651 8.6009961 -11 4 C-8.24432358 -0.62953638 -5.11343733 -0.63917967 0 0 Z M-7.875 3 C-9.64629177 6.14896314 -9.54794453 9.47038329 -9 13 C-8.01 14.485 -8.01 14.485 -7 16 C-3.63124415 16.36750064 -1.12327538 16.57975504 1.9375 15 C3.65701652 11.76326302 3.53653931 8.57692871 3 5 C2.03882095 2.87129307 2.03882095 2.87129307 0 2 C-3.08815875 1.61398016 -5.10184376 1.52098334 -7.875 3 Z " fill="#050404" transform="translate(185,408)"/>
<path d="M0 0 C3.3 0 6.6 0 10 0 C10 3.3 10 6.6 10 10 C6.7 10 3.4 10 0 10 C0 6.7 0 3.4 0 0 Z " fill="#1A9186" transform="translate(406,235)"/>
<path d="M0 0 C3.3 0 6.6 0 10 0 C10 3.3 10 6.6 10 10 C6.7 10 3.4 10 0 10 C0 6.7 0 3.4 0 0 Z " fill="#1A9287" transform="translate(392,235)"/>
<path d="M0 0 C3.3 0 6.6 0 10 0 C10 3.3 10 6.6 10 10 C6.7 10 3.4 10 0 10 C0 6.7 0 3.4 0 0 Z " fill="#1A9186" transform="translate(406,222)"/>
<path d="M0 0 C3.3 0 6.6 0 10 0 C10 3.3 10 6.6 10 10 C6.7 10 3.4 10 0 10 C0 6.7 0 3.4 0 0 Z " fill="#1A9286" transform="translate(392,222)"/>
<path d="M0 0 C0 0.99 0 1.98 0 3 C-2.97 3 -5.94 3 -9 3 C-9.02687279 4.81242052 -9.04633715 6.62495233 -9.0625 8.4375 C-9.07410156 9.44683594 -9.08570313 10.45617187 -9.09765625 11.49609375 C-9.28612676 13.94021067 -9.28612676 13.94021067 -8 15 C-6.65252916 15.23075082 -5.29622435 15.41153063 -3.9375 15.5625 C-2.638125 15.706875 -1.33875 15.85125 0 16 C0 16.66 0 17.32 0 18 C-1.32 18 -2.64 18 -4 18 C-3.67 19.98 -3.34 21.96 -3 24 C-4.32 23.67 -5.64 23.34 -7 23 C-6.34 22.67 -5.68 22.34 -5 22 C-5.33 20.68 -5.66 19.36 -6 18 C-6.598125 17.9175 -7.19625 17.835 -7.8125 17.75 C-10.7966964 16.72684695 -11.55760527 15.81266973 -13 13 C-13.62388198 8.08692938 -13.75777063 6.13665594 -11 2 C-6.97020535 -0.68652977 -4.76065969 -0.40344574 0 0 Z " fill="#070606" transform="translate(302,408)"/>
<path d="M0 0 C3.3 0 6.6 0 10 0 C10 0.66 10 1.32 10 2 C7.36 2 4.72 2 2 2 C2 3.98 2 5.96 2 8 C4.64 8 7.28 8 10 8 C10 8.66 10 9.32 10 10 C7.36 10 4.72 10 2 10 C2 11.98 2 13.96 2 16 C4.64 16 7.28 16 10 16 C10 16.66 10 17.32 10 18 C6.7 18 3.4 18 0 18 C0 12.06 0 6.12 0 0 Z " fill="#050404" transform="translate(417,408)"/>
<path d="M0 0 C3.3 0 6.6 0 10 0 C10 0.66 10 1.32 10 2 C7.36 2 4.72 2 2 2 C2 3.98 2 5.96 2 8 C4.64 8 7.28 8 10 8 C10 8.66 10 9.32 10 10 C7.36 10 4.72 10 2 10 C2 11.98 2 13.96 2 16 C4.64 16 7.28 16 10 16 C10 16.66 10 17.32 10 18 C6.7 18 3.4 18 0 18 C0 12.06 0 6.12 0 0 Z " fill="#040404" transform="translate(373,408)"/>
<path d="M0 0 C3.3 0 6.6 0 10 0 C10 0.66 10 1.32 10 2 C7.36 2 4.72 2 2 2 C2 3.98 2 5.96 2 8 C4.64 8 7.28 8 10 8 C10 8.66 10 9.32 10 10 C7.36 10 4.72 10 2 10 C2 11.98 2 13.96 2 16 C4.64 16 7.28 16 10 16 C10 16.66 10 17.32 10 18 C6.7 18 3.4 18 0 18 C0 12.06 0 6.12 0 0 Z " fill="#040404" transform="translate(331,408)"/>
<path d="M0 0 C0.66 0 1.32 0 2 0 C2.06058594 0.99902344 2.12117188 1.99804688 2.18359375 3.02734375 C2.26738281 4.31769531 2.35117187 5.60804688 2.4375 6.9375 C2.51871094 8.22527344 2.59992188 9.51304687 2.68359375 10.83984375 C2.64919188 13.86023957 2.64919188 13.86023957 4 15 C7 15.16666667 7 15.16666667 10 15 C11.94090826 13.05909174 11.39919435 9.52706098 11.5625 6.9375 C11.64628906 5.64714844 11.73007812 4.35679687 11.81640625 3.02734375 C11.87699219 2.02832031 11.93757813 1.02929688 12 0 C12.66 0 13.32 0 14 0 C14.08119503 2.24940295 14.13927819 4.49964871 14.1875 6.75 C14.22230469 8.00296875 14.25710938 9.2559375 14.29296875 10.546875 C13.98567601 14.16883205 13.6694047 15.57654045 11 18 C9.0625 18.53125 9.0625 18.53125 7 18.5 C6.319375 18.5103125 5.63875 18.520625 4.9375 18.53125 C3 18 3 18 1.26171875 16.421875 C-0.47325328 13.09158812 -0.2911462 10.4812633 -0.1875 6.75 C-0.16042969 5.48671875 -0.13335937 4.2234375 -0.10546875 2.921875 C-0.07066406 1.95765625 -0.03585937 0.9934375 0 0 Z " fill="#040404" transform="translate(269,408)"/>
<path d="M0 0 C0.33 0.66 0.66 1.32 1 2 C-1.64 2 -4.28 2 -7 2 C-7 3.65 -7 5.3 -7 7 C-6.05125 7.28875 -5.1025 7.5775 -4.125 7.875 C-1 9 -1 9 1 11 C1.25 13.5 1.25 13.5 1 16 C-1 18 -1 18 -3.1640625 18.1953125 C-3.97617188 18.17210937 -4.78828125 18.14890625 -5.625 18.125 C-6.44226563 18.10695313 -7.25953125 18.08890625 -8.1015625 18.0703125 C-8.72804687 18.04710937 -9.35453125 18.02390625 -10 18 C-10 17.34 -10 16.68 -10 16 C-7.36 15.67 -4.72 15.34 -2 15 C-2.03955898 13.07690578 -2.03955898 13.07690578 -3 11 C-3.99 10.525625 -4.98 10.05125 -6 9.5625 C-9 8 -9 8 -10.0625 5.5 C-10 3 -10 3 -9 1.1875 C-6.02507445 -0.57886204 -3.38199514 -0.19143369 0 0 Z " fill="#060505" transform="translate(227,408)"/>
<path d="M0 0 C1.670625 0.061875 1.670625 0.061875 3.375 0.125 C3.705 0.785 4.035 1.445 4.375 2.125 C2.065 2.455 -0.245 2.785 -2.625 3.125 C-2.58544102 5.04809422 -2.58544102 5.04809422 -1.625 7.125 C-0.635 7.599375 0.355 8.07375 1.375 8.5625 C4.375 10.125 4.375 10.125 5.4375 12.625 C5.375 15.125 5.375 15.125 4.1640625 16.76953125 C1.8574968 18.51708212 0.54597303 18.43678144 -2.3125 18.3125 C-3.12074219 18.28542969 -3.92898438 18.25835937 -4.76171875 18.23046875 C-5.37660156 18.19566406 -5.99148438 18.16085937 -6.625 18.125 C-6.625 17.465 -6.625 16.805 -6.625 16.125 C-3.655 16.125 -0.685 16.125 2.375 16.125 C2.375 14.475 2.375 12.825 2.375 11.125 C1.42625 10.83625 0.4775 10.5475 -0.5 10.25 C-3.625 9.125 -3.625 9.125 -5.625 7.125 C-5.875 4.625 -5.875 4.625 -5.625 2.125 C-3.625 0.125 -3.625 0.125 0 0 Z " fill="#060505" transform="translate(352.625,407.875)"/>
<path d="M0 0 C0.33 0.66 0.66 1.32 1 2 C-1.31 2 -3.62 2 -6 2 C-6 3.65 -6 5.3 -6 7 C-5.05125 7.28875 -4.1025 7.5775 -3.125 7.875 C0 9 0 9 2 11 C2.25 13.5 2.25 13.5 2 16 C0 18 0 18 -2.1640625 18.1953125 C-2.97617187 18.17210937 -3.78828125 18.14890625 -4.625 18.125 C-5.44226563 18.10695313 -6.25953125 18.08890625 -7.1015625 18.0703125 C-7.72804688 18.04710937 -8.35453125 18.02390625 -9 18 C-9 17.34 -9 16.68 -9 16 C-6.36 15.67 -3.72 15.34 -1 15 C-1.03955898 13.07690578 -1.03955898 13.07690578 -2 11 C-4.95009373 9.27487535 -4.95009373 9.27487535 -8 8 C-9 7 -9 7 -9.25 4.5625 C-9.1675 3.716875 -9.085 2.87125 -9 2 C-5.5647952 -0.29013653 -4.014669 -0.17842973 0 0 Z " fill="#060505" transform="translate(541,408)"/>
<path d="M0 0 C3.3 0 6.6 0 10 0 C10 0.66 10 1.32 10 2 C7.69 2 5.38 2 3 2 C3 3.98 3 5.96 3 8 C5.31 8 7.62 8 10 8 C10 8.66 10 9.32 10 10 C7.36 10 4.72 10 2 10 C2 12.64 2 15.28 2 18 C1.34 18 0.68 18 0 18 C0 12.06 0 6.12 0 0 Z " fill="#080707" transform="translate(433,408)"/>
<path d="M0 0 C-0.33 0.99 -0.66 1.98 -1 3 C-2.3921875 2.9071875 -2.3921875 2.9071875 -3.8125 2.8125 C-6.90747504 2.74760199 -6.90747504 2.74760199 -8.875 4.125 C-10.51151479 6.85252465 -10.32502803 8.87973093 -10 12 C-8.39519216 15.12606964 -8.39519216 15.12606964 -6.0546875 15.51171875 C-4.97574219 15.59873047 -4.97574219 15.59873047 -3.875 15.6875 C-2.59625 15.790625 -1.3175 15.89375 0 16 C0 16.66 0 17.32 0 18 C-8.01284109 18.77046549 -8.01284109 18.77046549 -11.5625 16 C-13.40472331 12.15536004 -13.95271277 9.18181888 -13 5 C-9.30474011 -0.54288984 -6.16029988 -0.52205931 0 0 Z " fill="#050504" transform="translate(168,408)"/>
<path d="M0 0 C4.62 0 9.24 0 14 0 C14 0.66 14 1.32 14 2 C12.02 2 10.04 2 8 2 C8 7.28 8 12.56 8 18 C7.34 18 6.68 18 6 18 C6 12.72 6 7.44 6 2 C4.02 2 2.04 2 0 2 C0 1.34 0 0.68 0 0 Z " fill="#040303" transform="translate(232,408)"/>
<path d="M0 0 C0.99 0.33 1.98 0.66 3 1 C2.67 2.32 2.34 3.64 2 5 C1.34 4.67 0.68 4.34 0 4 C-0.144375 4.78375 -0.28875 5.5675 -0.4375 6.375 C-1 9 -1 9 -2 11 C-0.35 11 1.3 11 3 11 C3 11.33 3 11.66 3 12 C1.02 12 -0.96 12 -3 12 C-3.33 13.98 -3.66 15.96 -4 18 C-4.99 17.67 -5.98 17.34 -7 17 C-6.02412745 14.35290841 -5.04447855 11.70732553 -4.0625 9.0625 C-3.78470703 8.30775391 -3.50691406 7.55300781 -3.22070312 6.77539062 C-1.11328125 1.11328125 -1.11328125 1.11328125 0 0 Z " fill="#050404" transform="translate(519,408)"/>
<path d="M0 0 C1.99954746 -0.04254356 4.00041636 -0.04080783 6 0 C7 1 7 1 7.125 3.5 C7 6 7 6 6 7 C4.00041636 7.04080783 1.99954746 7.04254356 0 7 C0 4.69 0 2.38 0 0 Z " fill="#1E1B1B" transform="translate(473,410)"/>
<path d="M0 0 C1.99954746 -0.04254356 4.00041636 -0.04080783 6 0 C7 1 7 1 7.125 3.5 C7 6 7 6 6 7 C4.00041636 7.04080783 1.99954746 7.04254356 0 7 C0 4.69 0 2.38 0 0 Z " fill="#201B1A" transform="translate(253,410)"/>
<path d="M0 0 C2.375 -0.125 2.375 -0.125 5 0 C5.66 0.66 6.32 1.32 7 2 C6.46428571 5.53571429 6.46428571 5.53571429 5 7 C3.33382885 7.04063832 1.66611905 7.042721 0 7 C0 4.69 0 2.38 0 0 Z " fill="#201D1C" transform="translate(401,410)"/>
<path d="M0 0 C1.9453125 -0.29296875 1.9453125 -0.29296875 4.125 -0.1875 C5.40375 -0.125625 6.6825 -0.06375 8 0 C7.67 0.99 7.34 1.98 7 3 C4.03 3 1.06 3 -2 3 C-1.34 2.01 -0.68 1.02 0 0 Z " fill="#090808" transform="translate(313,403)"/>
<path d="M0 0 C0.66 0 1.32 0 2 0 C2.33 1.98 2.66 3.96 3 6 C1.68 6 0.36 6 -1 6 C-0.67 4.02 -0.34 2.04 0 0 Z " fill="#1E1C1B" transform="translate(519,412)"/>
<path d="M0 0 C1.9375 0.6875 1.9375 0.6875 4 2 C4.75 4.625 4.75 4.625 5 7 C4.01 7 3.02 7 2 7 C1.34 4.69 0.68 2.38 0 0 Z " fill="#0A0808" transform="translate(478,408)"/>
</svg>
